<svg xmlns="http://www.w3.org/2000/svg" viewBox="0 0 1000 618.05"><defs><style>.a{fill:#000;}</style></defs><title>3</title><path class="a" d="M437.11,276.43h0a7.73,7.73,0,0,1,7.61,9.08L439.52,315c-1.38,7.64,1.66,12.05,9.1,12.05s12.23-4.41,13.52-12.05l5.68-32.13a7.72,7.72,0,0,1,7.61-6.39h0a7.74,7.74,0,0,1,7.62,9.08L477.87,315c-3.22,18.12-16.83,26.67-32,26.67-14.9,0-25.2-8.83-22-26.67l5.6-32.12A7.73,7.73,0,0,1,437.11,276.43Z"/><path class="a" d="M530.77,276.43h0a7.73,7.73,0,0,1,7.62,9.08l-6.12,34.87c-2.49,13.88-12.23,21.24-25,21.24-9.68,0-16.51-4.13-18.48-12a8.25,8.25,0,0,1,8-10.22h0a8.22,8.22,0,0,1,7.69,5.29c.73,1.94,2.39,2.89,4.81,2.89,3.77,0,6.34-2.39,7.26-7.17l6.6-37.55A7.75,7.75,0,0,1,530.77,276.43Z"/><path class="a" d="M586.83,327.05h-24.1l-5.59,13.19a7.18,7.18,0,0,1-6.4,3.9h0a7.21,7.21,0,0,1-6.35-10.62l27.15-52.92a12.75,12.75,0,0,1,11.22-6.7h0a12.73,12.73,0,0,1,12.52,10.42l8.25,49.87a8.1,8.1,0,0,1-8,9.58h0a8.1,8.1,0,0,1-8-6.82Zm-5.61-35.86L568.89,315.1H585Z"/><path class="a" d="M681.57,285.84l-8.23,46.6a10.73,10.73,0,0,1-10.56,8.86h0a10.73,10.73,0,0,1-9.66-6.06l-16.29-33.76-6,33.43a7.73,7.73,0,0,1-7.62,6.39h0a7.74,7.74,0,0,1-7.63-9.09l8.23-46.61a10.72,10.72,0,0,1,10.55-8.85h0a10.71,10.71,0,0,1,9.66,6.07l16.3,33.93,6-33.61a7.73,7.73,0,0,1,7.62-6.39h0A7.74,7.74,0,0,1,681.57,285.84Z"/><path class="a" d="M354.88,257.55,334.54,363.67a8.19,8.19,0,0,1-8.07,6.6h0a8.19,8.19,0,0,1-8-9.77l20.27-106.12a8.17,8.17,0,0,1,8-6.6h.08A8.18,8.18,0,0,1,354.88,257.55Z"/><path class="a" d="M351.86,318.42h0a8.4,8.4,0,0,1,3.93-5.5l35.27-21L366,279.39a8.49,8.49,0,0,1-4.54-9.14h0a8.49,8.49,0,0,1,12.2-6l30.41,15.44a13.63,13.63,0,0,1,7.46,11.74h0a13.64,13.64,0,0,1-6.72,12.19l-40.47,23.78A8.39,8.39,0,0,1,351.86,318.42Z"/></svg>